<svg enable-background="new 0 0 3417.9 902" viewBox="0 0 3417.9 902" xmlns="http://www.w3.org/2000/svg"><g fill="#ec5267"><path d="m885.5 375.2c-42.9 16.7-81.6 10.8-133.9-20.1 21.5-121.6-57.5-243.4-168.7-286.6-73.5-28.6-152-26.5-152-26.5-124.6-3.1-335.4 56.7-402.5 206.7-31 69.2-4.6 195.3 124.4 148.4 35.6-12.9 41.8-26 37.8-32.1-8.7-13.2-28.1 13.8-70.2.5-34.1-10.8-68.3-65.7 1-152.9 68.4-86 194.1-124.2 314-128.2 58.3 2.8 110.2 3 167.4 44 73.5 52.7 177.6 217.3 3.3 379.3-52.9 49.1-115.6 84.9-155.7 70.5-38-13.7-52-95.1 63.2-155.3 73.6-38.4 138-37.4 147.8-37.4 4.1-8.5 7.8-18.3 11-33.3-62.9-4-110.2 7.1-161.1 25-175.2 61.5-205.3 265.9-49.6 257.6 71.6-3.8 202.4-65.2 282.8-237.3 50.6 17.6 74.4 27.4 119.9 6.2 15.3-7.2 36.7-34.5 21.1-28.5z"/><path clip-rule="evenodd" d="m1995.8 467c-4 3.4-8.6 6.3-12.1 10.3-10.9 12.7-21.1 26.1-32.2 38.6-16.5 18.5-32.8 37.4-53.1 52-10.6 7.7-21.2 12.9-34.1 6.5-6.9-6-8.4-16.8-3.7-26.1 6.6-13.3 12.6-26.9 20.3-39.5 11.1-17.9 23.9-34.8 35.3-52.5 12.5-19.2 24.4-38.9 30.1-61.5 6.2-24.7-4.5-44.2-28.7-52.6-12-4.2-26.7-8.7-58.9 1.5 9.6-22.3 9.4-39.3.1-44.2-12.1-4.2-27.3-8.8-43.3 14-14.4 20.6-13 34.4 10.8 56.5-10.7 18.1-20.3 36.5-31.5 54.9-3.6 5.9-8.4 11.8-12.1 17.2-25.9 34.6-49.3 56.3-66.4 71-29.5 25.3-67 47.1-106.4 52.2-28.6 3.7-58.8-7.9-56-51 .1-1.6.1-3.2.3-4.8 4.4-34.2 30.5-70.6 30.7-70.6 18.9-34 44.4-61.5 78.6-80.7 9.5-5.4 19.9-8.6 31.2-7.8 16.8 1.1 24.9 12.4 19.3 28.2-7.3 20.6-22.1 35.4-40.3 46.7-19.1 11.8-45.2 20-86.6 15.3 0 0-.5.8-.7 1.1-.8 8.3 1.9 13.3 8.9 16.8 5.6 2.8 12 5.5 18.2 5.7 36.4 1.8 70.6-6.1 101.2-26.5 19.1-12.8 34.5-29.1 43.2-50.9 9.8-24.3 1.3-45.3-22.9-55.4-6.2-2.6-13.1-4.3-19.8-5.1-23.1-2.6-44.9 2.7-65.8 12.1-23.8 10.6-45.2 25-64.6 42.2-12.8 11.3-29.8 25.4-45.5 32.4-14.2 6.4-56.8-4.3-79.6-31.2-13.6-7.1-15.8-11.3-10.9 12.9 6.1 8.8 18 40.4 74.2 54.3.1.5-3.8 8.5-5.3 11.4-11.1 20.7-21.4 41.7-24.2 65.4-6.4 53.2 23.9 91.9 79.4 92.1 20.8.1 41.3-4.8 60.8-13.8 45.4-21.1 83.1-51.3 115.7-88.1 23.1-25.8 45.6-56.5 62.1-80.6 14.3-20.9 24.3-37.4 37.7-58.1 20.9-9.6 58.8-15.2 33.5 31.1-11.3 20.6-24.4 40.3-36.8 60.3-15.7 25.2-32.6 49.8-41.7 78.5-4.9 15.4-9.4 30.7-5.5 47.3 5.7 24.2 21.6 34.8 46.2 31.3 23.9-3.4 42.5-16.6 60.2-31.4 35.5-29.6 65.2-64.7 92.4-101.9 2.2-3 4.2-6.2 5.9-9.5 3.5-7.3.6-11.8-7.6-16z" fill-rule="evenodd"/><path d="m1490.9 334.8c-3.9-10.9-11.1-17.3-23.1-18.6-29.3-3.2-45.8 12.2-48.9 39.4-1.3 10.9 2.6 22.4 12 36.8-12.6 27-28.4 57.4-46.6 82.7-19 26.3-39 51.9-66.4 69.8-11.5 7.5-43.6 23.5-53.6 10-8-10.8 6-40 10.4-48.1 26.9-49.6 54.1-99 81.1-148.5 3.1-5.8 9.2-15.7 12.2-22-18-.7-23.1-.5-32.1-.7-19.2-.6-27.9 5.3-35.6 20.2-15.1 29.2-30.6 58.2-46.8 86.7-8.5 15-17.9 29.8-28.5 43.4-20 25.5-69.6 68.1-91.8 72.3-16.1 3-24.5-9.1-20.1-24.6 2-7.1 5.3-13.9 8.7-20.5 26.4-51.2 53.1-102.3 79.6-153.4 3.9-7.5 8.6-16.3 14.8-29.1-19-.2-25.9.6-38.9.7-12.2.1-20.5 3.9-25.6 14.7-1.5 3.2-21.7 46-87.9 65.3v.1c-33.1 11.1-58.7 3.8-58.7 3.8-22.4-9-33.2-23-34.9-40.7-1.1-11.2 2-21.8 11.8-27.5 7.8-4.4 20.5-2.2 27.4 4.3 5.9 5.6 15 17.6 5.5 43.3 15.8 4.3 33.5.8 43.5-1.9 1.4-8 1.4-12.8 1.1-18.9-1.9-30.2-15.4-54.4-43.2-59.6-27.5-5.1-58 5.9-78.2 28.1-15.8 2.9-24.8 5.7-34.7 10.5-53.6 25.7-92 66.7-117 120.1-11.1 23.8-15.7 49.4-14.2 76 1.6 27.9 17.1 49.6 40.8 56.3 20.2 5.7 40 5.4 60.4-.3 40.4-11.2 71.7-35.9 100-65.3 25.9-27 48.4-59.4 65.4-93 19.2-3.5 51.4-9.9 73.5-23-3.3 6.4-9.3 17.8-11.5 21.9-14.9 29.2-30.6 58.2-44.4 87.9-5.1 10.9-8.1 23.8-8.1 35.7 0 28.9 20.5 44.9 48.9 42 25.7-2.6 47.4-13.7 67.2-29.2 12.1-9.6 23.6-20.1 36.4-31.1-3.1 27.2 5.6 50 15.1 57.2 8 7 20.4 8.7 31.8 7.8 21.4-1.6 43.5-10.4 61.8-21.3 65.6-39 111.5-93.7 152.1-157 3.3-5.2 10.5-16.5 13.4-21.2 11.2-17.4 16-36 16.7-39 2.9-14.4 4.3-28.5-.8-42.5zm-574.5 201.9c-14.9 10.4-30.8 18.3-49.8 17.8-20.4-.6-31.7-9.9-33.4-29.9-.8-9.8-.4-20.2 2.2-29.5 14.4-52.1 44.9-93 90.1-125.7-2.6 45.3 24.7 66.8 65.2 77.6-21.6 40.9-42.4 67.5-74.3 89.7z"/><g clip-rule="evenodd" fill-rule="evenodd"><path d="m399.1 118.2c-97.6 125.1-214.8 423.6-240.5 480-45.5 100.1-98.1 191.3-143.7 237.2-4.5 4.5-19 17.7-13.8 25.8 3.8 5.2 14.2 1.7 20.6-1.5 9.4-4.7 14.7-7.7 27.5-15.6 84.4-59.6 149.8-201.1 163.8-231.2 28.4-61.2 54.3-127 82.6-188.3 17-36.8 98-206.2 103.9-216.9 23.9-43.5 32.8-60.4 53.5-93.2-18.3-.8-30.5-1.4-53.9 3.7z"/><path d="m3131.5 535.4c-2 1.7-3.5 3.8-5.2 5.7-31.6 36.9-122.8 79.2-159.4 93.2 9.8-17.1 102.9-188.5 140.6-248.5 2.3-3.6 17.4-26.7 17.4-26.7s-28.3 1.3-44.1 1c-15.5-.3-22.8 3.3-30.5 16.5-19.9 34.1-47.1 78.3-67.2 112.2-26 43.8-79.7 110.1-115 108.5-18.1-.9-24.6-18-16.5-36.7 3.2-7.3 52.9-115.3 86.9-171.5 2-3.3 15.5-25.9 15.5-25.9s-25.3.7-41.4 1c-14.9.3-24.4 3.4-31.8 16.1-15.3 26.4-63.2 135-85.7 173.1-8.2 14-11.4 29.5-10.9 45.7.6 22.3 21.2 39.8 39.5 42.2 26.7 3.5 49.8-2.8 72.3-15.4 23.9-13.3 47.5-40.2 64.7-56.9-1.6 3-10.8 39.1-41.1 73.2-7.8 8.9-13.4 10.9-24.3 15.3-41.2 16.8-91.9 36.4-136.1 54.8-13.9 5.6-68.3 34.9-90.8 51.3-3.7 3-10.8 7.9-14.4 11.2-13.6 12.5-23.5 27.2-27.7 45.5-6.8 29.8 7.7 56.6 36.2 66.9 21.9 7.9 44 6.8 65.9.7 35.7-9.9 65.1-30.7 92.3-55 16.2-14.5 45.6-45.9 45.6-45.9s13.3-14.5 23.3-27.7c20.2-25.4 38.8-52.2 56.4-79.7 7.3-11.4 47.4-27.6 56.6-32.1 42.4-20.8 98.8-40.4 136.8-89.3 2.9-3.7 6.3-7.6 7.1-12 .8-3.9-.1-9.5-2.5-12.5-3.8-4.5-8.8-1.5-12.5 1.7zm-281 209.8c-13.9 13-28.8 27.5-28.8 27.5s-43.4 37.3-62 50.4c-16.3 11.5-33.8 20.2-54.7 20-22.6-.3-32.1-14.4-20.6-33.6 5.7-9.6 14.7-18.1 23.7-24.8 3.3-2.5 5.3-4.1 6.8-5.2 30.4-19.9 69-37.2 96.2-49.7 24.3-12 52.9-25.1 68.3-31.8 7.9-3.6 13.8-1.4 12.7-.1-10.8 14.7-25.4 31-41.6 47.3z"/><path d="m2449.2 389.3s-123.5 288.8-313.5 227.6c0 0-121-48.1-28.1-190.7 0 0 6.9-8.1 2.5-9.7 0 0-4.7-4.4-9.5.5 0 0-138.4 157.3 9 244 0 0 217.6 108.7 399.3-272.8 0-.1-16.4-.1-59.7 1.1z"/><path d="m3088.1 29.6c-17.3-15.4-39.8-20.2-62-20.7-62.4-1.3-115.8 24.4-165 61.6-41.5 31.4-71 77.2-98.9 120.8-2.2 3.5-4.6 6.9-7 10.4-.2-.1 2-2.5 1.8-2.6-60.6-28.7-151-94.3-207.9-129.3-47.2-28.9-97.9-53.6-155.5-48.5-32.6 2.8-60.6 15.1-82.5 40.2-10.9 12.6-18 30.7-18 47.5-.1 23.7 4.8 40.1 16.7 59.3 21.8 35.1 55.6 56.1 94.4 65.3 30.6 7.2 63 9.6 94.7 6.7 4.2-.4 9.8-.4 17.2-1.8-8.2 17.7-24.8 47.4-24.8 47.4l-15.7 30.5s-87.7 4-168 17.8c7.6 7.1 11.5 38.6 11.5 38.6 18.8-2.4 38.9-4.4 60.9-5.8 169.4-10.9 211.1-.8 235.8-1.4 13-.3 25.3-11.5 23.8-26.4-2-19.6-5.1-19.5-18.4-20.3-17-1-75-2.1-86.8-1.9 0 0 35.8-76.5 50.8-104.9 4.3-8.2 5.8-15.5-.6-21.4-7.4-6.9-16.6-12.1-25.9-16.2-8.5-3.6-24.2-8.7-28.1 2.7-7 24.6-12.9 25.6-27.6 27.8-56 8.6-129.1-13.4-159.5-62.9-19.5-31.7-7-68 25.4-76.7 29.4-7.9 45.2-6.6 73.7 1.3 46.8 13.1 80.2 38.9 121.6 64.6 56 34.8 112.2 69.5 172.8 95.9-5.3 10.8-12.2 24.9-17.2 36.1-23.2 52-138.1 299.3-147.6 322.4-5.6 13.7-23.1 69.1 33.2 69.1 31.9 0 53.2-21 60.1-27.1 35.1-31.2 62.1-69.1 87.1-108.6 1.7-2.6 3-5.6 3.3-9 .6-4.7-2.8-7.3-5.3-8.4-7-3.2-13.2 7.8-15.2 10.3-15.1 19.6-46.6 69.6-73 86.8-6.5 4.2-16.4 5.5-22.9.8-6.5-4.8-7.7-12.2-5.9-19.7 1.7-6.6 4-13.1 6.7-19.4 27-61 100.5-219.7 127.8-280.5 6.4-14.3 10.2-24.2 16.9-39.4-.4 0 5.1-2.5 5.5-2.9-.1.3-5.4 2.7-5.5 3 38.5 2.5 84.9.6 122.9-7.3 55.3-11.5 106.5-31 151.5-65.8 19.1-14.7 33.9-35.8 44.3-58 12.1-26.4 4.6-62-15.6-80zm-26.8 56.3c-2.1 22.2-13.1 39.7-27.9 55.2-21.9 22.9-53.9 40-83.2 51.6-49.9 19.9-90.9 25.8-144.2 20.7-1.2-.1-5.1-.5-8.3-1.3 12.2-19.4 40.4-84 116.5-132.1 32.5-20.6 72.1-40.3 111.5-37.7 32.5 2.3 37.2 25.6 35.6 43.6z"/></g><path d="m2273.2 348.9-37.8-.1c-8.9 0-18.1 7.6-19.8 16.3l-23.6 122.4c-1.7 8.7 4.7 16 13.6 16l37.8.1c9.2 0 18.1-7.3 19.8-16l23.6-122.5c1.6-8.6-4.2-16.2-13.6-16.2zm-33.5 130.3-21.1-.1 20.4-105.9h21.1z"/><path d="m2197.9 348.7-69.4-.1-4.7 24.4 22.2.1-25.2 130.3h25l25.2-130.3h22.2z"/><path d="m3264.1 461.2h-20.4v-79.1h-26.1v-16.9h72.5v16.9h-26.1v79.1z"/><path d="m3352.3 461.2-23.1-75.3h-.6c.8 15.3 1.2 25.5 1.2 30.7v44.7h-18.2v-96h27.7l22.7 73.4h.4l24.1-73.4h27.7v96h-19v-45.4c0-2.1 0-4.6.1-7.4s.4-10.2.9-22.3h-.6l-24.8 75.2h-18.5z"/></g></svg>